# xmcd
#
# Track frame offsets:
#	150
#	28097
#	55082
#	77340
#	95155
#	132012
#	147747
#	163045
#	200557
#	217447
#	246720
#	260770
#
# Disc length: 4280 seconds
#
# Revision: 9
# Processed by: cddbd v1.5.2PL0 Copyright (c) Steve Scherf et al.
# Submitted via: EZCDAudioConverter 1.3.4.1
#
DISCID=c110b60c
DTITLE=Yello - Flag
DYEAR=1988
DGENRE=
TTITLE0=Tied Up
TTITLE1=Of Course I'm Lying
TTITLE2=3rd Of June
TTITLE3=Blazing Saddles
TTITLE4=The Race
TTITLE5=Alhambra
TTITLE6=Otto Di Catania
TTITLE7=Tied Up In Red
TTITLE8=Tied Up In Gear
TTITLE9=The Race [Break Light Mix]
TTITLE10=Wall Street Bongo
TTITLE11=The Race [12'' Mix]
EXTD=
EXTT0=
EXTT1=
EXTT2=
EXTT3=
EXTT4=
EXTT5=
EXTT6=
EXTT7=
EXTT8=
EXTT9=
EXTT10=
EXTT11=
PLAYORDER=
